<svg id="Layer_1" data-name="Layer 1" xmlns="http://www.w3.org/2000/svg" viewBox="0 0 180.704 40.008">
  <defs>
    <style>
      .cls-1 {
        fill: #fee9e6;
      }

      .cls-2 {
        fill: #fff;
      }
    </style>
  </defs>
  <title>e61db1f9-568b-4e12-9308-ad05322413c9</title>
  <rect class="cls-1" width="180.704" height="40.008"/>
  <path class="cls-2" d="M11.635,21.556c0,3.542,3.42,4.558,3.42,8.286a4.752,4.752,0,0,1-5.066,4.937c-3.1,0-5.5-2.211-5.5-5.882,0-3.928,2.783-8.229,7.027-12.085l1.388.88A6.724,6.724,0,0,0,11.635,21.556Zm12.973,0c0,3.542,3.42,4.558,3.42,8.286a4.752,4.752,0,0,1-5.066,4.937c-3.1,0-5.5-2.211-5.5-5.882,0-3.928,2.783-8.229,7.027-12.085l1.388.88A6.724,6.724,0,0,0,24.607,21.556Z"/>
  <path class="cls-2" d="M167.651,18.087c0-3.542-3.42-4.558-3.42-8.286A4.752,4.752,0,0,1,169.3,4.864c3.1,0,5.5,2.211,5.5,5.882,0,3.928-2.783,8.229-7.027,12.085l-1.388-.88A6.724,6.724,0,0,0,167.651,18.087Zm-12.973,0c0-3.542-3.42-4.558-3.42-8.286a4.752,4.752,0,0,1,5.066-4.937c3.1,0,5.5,2.211,5.5,5.882,0,3.928-2.783,8.229-7.027,12.085l-1.388-.88A6.724,6.724,0,0,0,154.678,18.087Z"/>
</svg>
